<mxfile host="app.diagrams.net" modified="2022-10-10T04:25:05.841Z" agent="5.0 (Windows NT 10.0; Win64; x64) AppleWebKit/537.36 (KHTML, like Gecko) Chrome/105.0.0.0 Safari/537.36" etag="m5moz4etUyyQljBaSPC6" version="20.4.0" type="github">
  <diagram id="nvcFFbJ165kRAkoKFj0k" name="第 1 页">
    <mxGraphModel dx="1422" dy="754" grid="1" gridSize="10" guides="1" tooltips="1" connect="1" arrows="1" fold="1" page="1" pageScale="1" pageWidth="827" pageHeight="1169" math="0" shadow="0">
      <root>
        <mxCell id="0" />
        <mxCell id="1" parent="0" />
        <mxCell id="DdsSL3DYtZ3TCGSkQDBG-5" style="edgeStyle=orthogonalEdgeStyle;rounded=0;orthogonalLoop=1;jettySize=auto;html=1;" edge="1" parent="1" source="DdsSL3DYtZ3TCGSkQDBG-1" target="DdsSL3DYtZ3TCGSkQDBG-3">
          <mxGeometry relative="1" as="geometry" />
        </mxCell>
        <mxCell id="DdsSL3DYtZ3TCGSkQDBG-8" style="edgeStyle=orthogonalEdgeStyle;rounded=0;orthogonalLoop=1;jettySize=auto;html=1;" edge="1" parent="1" source="DdsSL3DYtZ3TCGSkQDBG-1" target="DdsSL3DYtZ3TCGSkQDBG-7">
          <mxGeometry relative="1" as="geometry" />
        </mxCell>
        <mxCell id="DdsSL3DYtZ3TCGSkQDBG-9" style="edgeStyle=orthogonalEdgeStyle;rounded=0;orthogonalLoop=1;jettySize=auto;html=1;" edge="1" parent="1" source="DdsSL3DYtZ3TCGSkQDBG-1" target="DdsSL3DYtZ3TCGSkQDBG-6">
          <mxGeometry relative="1" as="geometry" />
        </mxCell>
        <mxCell id="DdsSL3DYtZ3TCGSkQDBG-1" value="电源" style="whiteSpace=wrap;html=1;aspect=fixed;" vertex="1" parent="1">
          <mxGeometry x="40" y="250" width="60" height="60" as="geometry" />
        </mxCell>
        <mxCell id="DdsSL3DYtZ3TCGSkQDBG-2" value="左1灯口" style="rounded=0;whiteSpace=wrap;html=1;" vertex="1" parent="1">
          <mxGeometry x="270" y="110" width="120" height="60" as="geometry" />
        </mxCell>
        <mxCell id="DdsSL3DYtZ3TCGSkQDBG-3" value="中间灯口" style="rounded=0;whiteSpace=wrap;html=1;" vertex="1" parent="1">
          <mxGeometry x="260" y="250" width="120" height="60" as="geometry" />
        </mxCell>
        <mxCell id="DdsSL3DYtZ3TCGSkQDBG-4" value="右1灯口" style="rounded=0;whiteSpace=wrap;html=1;" vertex="1" parent="1">
          <mxGeometry x="260" y="370" width="120" height="60" as="geometry" />
        </mxCell>
        <mxCell id="DdsSL3DYtZ3TCGSkQDBG-11" style="edgeStyle=orthogonalEdgeStyle;rounded=0;orthogonalLoop=1;jettySize=auto;html=1;" edge="1" parent="1" source="DdsSL3DYtZ3TCGSkQDBG-6" target="DdsSL3DYtZ3TCGSkQDBG-2">
          <mxGeometry relative="1" as="geometry" />
        </mxCell>
        <mxCell id="DdsSL3DYtZ3TCGSkQDBG-6" value="左边温控" style="ellipse;whiteSpace=wrap;html=1;" vertex="1" parent="1">
          <mxGeometry x="100" y="100" width="120" height="80" as="geometry" />
        </mxCell>
        <mxCell id="DdsSL3DYtZ3TCGSkQDBG-10" style="edgeStyle=orthogonalEdgeStyle;rounded=0;orthogonalLoop=1;jettySize=auto;html=1;" edge="1" parent="1" source="DdsSL3DYtZ3TCGSkQDBG-7" target="DdsSL3DYtZ3TCGSkQDBG-4">
          <mxGeometry relative="1" as="geometry" />
        </mxCell>
        <mxCell id="DdsSL3DYtZ3TCGSkQDBG-7" value="右边温控" style="ellipse;whiteSpace=wrap;html=1;" vertex="1" parent="1">
          <mxGeometry x="90" y="360" width="110" height="80" as="geometry" />
        </mxCell>
      </root>
    </mxGraphModel>
  </diagram>
</mxfile>
